Coordinates
version=1
nRows=6
nColumns=34
inDegrees=yes

Units are S.I. units (second, meters, Newtons, ...)
If the header above contains a line with 'inDegrees', this indicates whether rotational values are in degrees (yes) or radians (no).

endheader
time	pelvis_tilt	pelvis_list	pelvis_rotation	pelvis_tx	pelvis_ty	pelvis_tz	hip_flexion_r	hip_adduction_r	hip_rotation_r	knee_angle_r	ankle_angle_r	subtalar_angle_r	mtp_angle_r	hip_flexion_l	hip_adduction_l	hip_rotation_l	knee_angle_l	ankle_angle_l	subtalar_angle_l	mtp_angle_l	lumbar_extension	lumbar_bending	lumbar_rotation	arm_flex_r	arm_add_r	arm_rot_r	elbow_flex_r	pro_sup_r	arm_flex_l	arm_add_l	arm_rot_l	elbow_flex_l	pro_sup_l
      0.00000000	      2.25918909	     -2.06859234	      4.81147698	      1.05102411	      1.09013970	     -0.30368758	     -2.59022774	     -2.40346650	     -9.08857081	      2.04397387	     -1.43692252	     -8.67699640	      0.00000000	     -3.68396658	    -11.75796501	     -3.46778004	      4.48401780	      6.88812952	      6.90464283	      0.00000000	     -7.68180540	      2.77963781	     -2.65119660	     -3.32396193	     -8.28758179	     -1.78635285	     28.53245152	     83.09311671	      0.16694053	     -9.01444615	     10.85763083	     25.57489031	     76.90176547
      0.01666670	      1.31759469	     -2.62946960	      4.84134668	      1.05216611	      1.08864333	     -0.30510339	     -1.47989234	     -1.79852625	    -10.29120405	      2.48998875	      0.82175518	     -6.46315987	      0.00000000	     -3.13581788	    -12.02432469	     -2.86013675	      3.16321797	      6.21483948	      8.18342992	      0.00000000	     -6.38537779	      3.22713945	     -3.07054448	     -3.07849143	     -7.37890368	     -6.90977380	     27.54410798	     82.02374924	     -0.45944610	     -7.29765042	      3.47498911	     25.49323013	     76.35535247
      0.03333330	      0.76342086	     -2.76238802	      4.60091563	      1.05294013	      1.09005331	     -0.30395604	     -1.11804303	     -1.49334639	    -10.95324023	      1.93461449	      0.24456310	     -6.62724027	      0.00000000	     -2.94696734	    -12.37404019	     -3.91464193	      2.53448553	      5.47191079	      8.99377567	      0.00000000	     -5.94747448	      3.10338882	     -2.89893810	     -3.86199923	     -6.39891726	    -10.63403507	     28.96263757	     81.81438532	     -1.36823239	     -6.86393109	     -0.23045392	     27.12421508	     77.65778894
      0.05000000	      0.80283773	     -3.12608745	      4.92691920	      1.05788020	      1.08930544	     -0.30568328	     -1.54152401	     -1.18919130	    -11.66968406	      1.51539825	      1.47912948	     -4.31559596	      0.00000000	     -3.60751780	    -12.69945684	     -4.50777303	      1.65891949	      5.15244113	      9.50408533	      0.00000000	     -5.64101485	      3.50957106	     -2.89990271	     -4.52090358	     -6.14239749	    -12.27896382	     29.39716360	     82.65498137	     -1.81063909	     -6.68083000	     -1.03185716	     27.30739124	     79.80256324
      0.06666670	      0.79336514	     -3.43708211	      4.76518589	      1.05536662	      1.08938298	     -0.30890735	     -1.48360959	     -0.93975135	    -11.67190677	      1.57335118	      1.50399371	     -4.31933595	      0.00000000	     -3.98269895	    -12.93183923	     -4.72735483	      1.01513957	      4.88844408	      9.63853270	      0.00000000	     -5.59535916	      4.09702603	     -2.89369365	     -4.34551737	     -6.37564923	    -12.34071106	     29.54601214	     82.73219665	     -1.91287675	     -6.30887635	     -0.95708347	     27.37794109	     79.95005315
      0.08333330	      0.91350262	     -3.51367197	      4.78975635	      1.05469056	      1.08689296	     -0.30732857	     -1.85131257	     -0.82601766	    -11.59897427	      1.18247476	      1.49705147	     -4.06781493	      0.00000000	     -4.29868314	    -12.95126257	     -5.13993524	      0.55275659	      4.83593435	      9.88952473	      0.00000000	     -5.53799616	      4.27362208	     -2.99739582	     -4.36063139	     -6.41434971	    -12.42834633	     30.02838743	     82.93812930	     -1.89266360	     -6.18706696	     -0.90809489	     27.57413726	     80.28629515
